<?xml version="1.0" encoding="UTF-8"?>
<svg width="21px" height="21px" viewBox="0 0 21 21" version="1.1" xmlns="http://www.w3.org/2000/svg" xmlns:xlink="http://www.w3.org/1999/xlink">
    <!-- Generator: Sketch 51.1 (57501) - http://www.bohemiancoding.com/sketch -->
    <title>上传模式广播</title>
    <desc>Created with Sketch.</desc>
    <defs></defs>
    <g id="图标按钮汇总V0.2" stroke="none" stroke-width="1" fill="none" fill-rule="evenodd">
        <g id="V1.412月24日" transform="translate(-68.000000, -1973.000000)" fill="#FFFFFF" fill-rule="nonzero">
            <g id="Group-10" transform="translate(68.000000, 1973.000000)">
                <path d="M19.9522675,11.875 C19.3739192,11.875 18.904535,11.4056158 18.904535,10.8272675 C18.904535,5.93016587 15.0677387,2.09546497 10.1727325,2.09546497 C9.59438415,2.09546497 9.125,1.62608082 9.125,1.04773249 C9.125,0.469384154 9.59438415,0 10.1727325,0 C16.2432945,0 21,4.75670549 21,10.8272675 C21,11.4056158 20.5306158,11.875 19.9522675,11.875 Z M15.5945386,11.875 C15.0161902,11.875 14.5468061,11.4056158 14.5468061,10.8272675 C14.5468061,8.37347803 12.6252647,6.45193665 10.1735707,6.45193665 C9.59312687,6.45193665 9.12583819,5.9825525 9.12583819,5.40420416 C9.12583819,4.82585583 9.59312687,4.35647168 10.1735707,4.35647168 C13.8008205,4.35647168 16.642271,7.20001765 16.642271,10.8272675 C16.642271,11.4056158 16.1728869,11.875 15.5945386,11.875 Z M6.5,21 C2.91014913,21 0,18.0898509 0,14.5 C0,10.9101491 2.91014913,8 6.5,8 C10.0898509,8 13,10.9101491 13,14.5 C13,18.0898509 10.0898509,21 6.5,21 Z M9.65323037,14.9791093 C10.059571,14.9791093 10.2643666,14.484117 9.97667749,14.1965968 L6.82347449,11.0224388 C6.64468463,10.8443723 6.35537013,10.8443723 6.17658027,11.0224388 L3.02337727,14.1965968 C2.73568814,14.484117 2.94048379,14.9791093 3.34519902,14.9791093 L4.85841139,14.9791093 L4.85841139,18.1908409 C4.85841139,18.411382 5.03720125,18.5894485 5.25499981,18.5894485 L7.74505495,18.5894485 C7.96447887,18.5894485 8.14164337,18.411382 8.14164337,18.1908409 L8.14164337,14.9791093 L9.65323037,14.9791093 Z" id="上传模式广播"></path>
            </g>
        </g>
    </g>
</svg>